<svg width="171" height="31" viewBox="0 0 171 31" fill="none" xmlns="http://www.w3.org/2000/svg">
<mask id="path-1-outside-1_177_1237" maskUnits="userSpaceOnUse" x="-0.499985" y="-0.5" width="171" height="32" fill="black">
<rect fill="white" x="-0.499985" y="-0.5" width="171" height="32"/>
<path d="M2.50402 30.335C1.63402 30.335 1.02652 29.99 0.681515 29.3C0.351515 28.61 0.471515 27.9125 1.04152 27.2075L11.189 14.135V16.835L1.01902 3.74C0.659015 3.29 0.486515 2.8175 0.501515 2.3225C0.531515 1.8125 0.711515 1.385 1.04152 1.04C1.38652 0.68 1.85902 0.5 2.45902 0.5C2.78902 0.5 3.08902 0.6125 3.35902 0.8375C3.62902 1.0475 3.88402 1.3175 4.12402 1.6475L13.664 14.225H11.594L21.179 1.6475C21.449 1.2875 21.7265 1.0175 22.0115 0.8375C22.3115 0.6425 22.679 0.544999 23.114 0.544999C23.609 0.544999 24.0065 0.71 24.3065 1.04C24.6215 1.37 24.7865 1.7825 24.8015 2.2775C24.8315 2.7575 24.6515 3.2375 24.2615 3.7175L14.114 16.835V14.135L24.2615 27.185C24.6365 27.605 24.809 28.0625 24.779 28.5575C24.764 29.0375 24.584 29.45 24.239 29.795C23.894 30.155 23.414 30.335 22.799 30.335C22.304 30.335 21.764 29.9975 21.179 29.3225L11.594 16.7H13.664L4.12402 29.3225C3.61402 29.9975 3.07402 30.335 2.50402 30.335Z"/>
<path d="M41.0451 30.02H34.7001C33.5151 30.02 32.5326 29.825 31.7526 29.435C30.9876 29.03 30.4176 28.415 30.0426 27.59C29.6676 26.765 29.4801 25.73 29.4801 24.485C29.4801 23.675 29.6376 23.0525 29.9526 22.6175C30.2826 22.1825 30.7551 21.965 31.3701 21.965C31.9701 21.965 32.4351 22.175 32.7651 22.595C33.0951 23.015 33.2601 23.6 33.2601 24.35C33.2601 25.1 33.3801 25.6025 33.6201 25.8575C33.8601 26.1125 34.3251 26.24 35.0151 26.24H41.0451C43.2951 26.24 44.9826 26.135 46.1076 25.925C47.2326 25.7 47.9826 25.265 48.3576 24.62C48.7326 23.975 48.9201 23.015 48.9201 21.74V20.93H39.5601C38.0001 20.93 37.2201 20.33 37.2201 19.13C37.2201 17.81 38.0001 17.15 39.5601 17.15H48.9201V16.97C48.9201 15.695 48.7326 14.7425 48.3576 14.1125C47.9826 13.4675 47.2326 13.04 46.1076 12.83C44.9976 12.62 43.3101 12.515 41.0451 12.515H35.0151C34.3251 12.515 33.8601 12.65 33.6201 12.92C33.3801 13.19 33.2601 13.7 33.2601 14.45C33.2601 16.01 32.6301 16.79 31.3701 16.79C30.1101 16.79 29.4801 15.95 29.4801 14.27C29.4801 13.01 29.6676 11.975 30.0426 11.165C30.4176 10.34 30.9876 9.7325 31.7526 9.3425C32.5326 8.9375 33.5151 8.735 34.7001 8.735H41.0451C43.9251 8.735 46.2126 8.9975 47.9076 9.5225C49.6176 10.0325 50.8401 10.895 51.5751 12.11C52.3251 13.31 52.7001 14.945 52.7001 17.015V21.74C52.7001 23.81 52.3251 25.4525 51.5751 26.6675C50.8401 27.8675 49.6176 28.73 47.9076 29.255C46.2126 29.765 43.9251 30.02 41.0451 30.02Z"/>
<path d="M70.6583 30.02C67.7933 30.02 65.5058 29.7575 63.7958 29.2325C62.1008 28.6925 60.8858 27.8075 60.1508 26.5775C59.4158 25.3475 59.0483 23.69 59.0483 21.605V9.455C59.0483 7.745 59.3483 6.335 59.9483 5.225C60.5483 4.1 61.4708 3.23 62.7158 2.615C63.9758 1.985 65.5883 1.55 67.5533 1.31C68.8433 1.145 70.4033 1.0325 72.2333 0.972501C74.0783 0.897501 76.0133 0.860001 78.0383 0.860001C79.5983 0.860001 80.3783 1.505 80.3783 2.795C80.3783 3.425 80.1608 3.89 79.7258 4.19C79.2908 4.49 78.6683 4.64 77.8583 4.64C77.1083 4.64 76.4258 4.64 75.8108 4.64C75.2108 4.64 74.6483 4.6475 74.1233 4.6625C73.5983 4.6625 73.0733 4.67 72.5483 4.685C72.0383 4.685 71.4983 4.7 70.9283 4.73C69.3083 4.805 67.8908 4.9625 66.6758 5.2025C65.4758 5.4275 64.5383 5.8175 63.8633 6.3725C63.2033 6.9125 62.8733 7.7 62.8733 8.735H72.8183C75.4583 8.735 77.5658 9.005 79.1408 9.545C80.7308 10.07 81.8708 10.94 82.5608 12.155C83.2658 13.37 83.6183 14.99 83.6183 17.015V21.74C83.6183 23.795 83.2508 25.43 82.5158 26.645C81.7808 27.845 80.5658 28.7075 78.8708 29.2325C77.1758 29.7575 74.8883 30.02 72.0083 30.02H70.6583ZM70.6583 26.24H72.0083C74.2583 26.24 75.9383 26.135 77.0483 25.925C78.1733 25.7 78.9158 25.2575 79.2758 24.5975C79.6508 23.9225 79.8383 22.925 79.8383 21.605V17.15C79.8383 15.83 79.6658 14.84 79.3208 14.18C78.9758 13.52 78.3008 13.0775 77.2958 12.8525C76.2908 12.6275 74.7983 12.515 72.8183 12.515H62.8283V21.605C62.8283 22.925 63.0083 23.9225 63.3683 24.5975C63.7433 25.2575 64.4858 25.7 65.5958 25.925C66.7208 26.135 68.4083 26.24 70.6583 26.24Z"/>
<path d="M101.573 30.02C98.7079 30.02 96.4204 29.7575 94.7104 29.2325C93.0154 28.6925 91.8004 27.8075 91.0654 26.5775C90.3304 25.3475 89.9629 23.69 89.9629 21.605V9.455C89.9629 7.745 90.2629 6.335 90.8629 5.225C91.4629 4.1 92.3854 3.23 93.6304 2.615C94.8904 1.985 96.5029 1.55 98.4679 1.31C99.7579 1.145 101.318 1.0325 103.148 0.972501C104.993 0.897501 106.928 0.860001 108.953 0.860001C110.513 0.860001 111.293 1.505 111.293 2.795C111.293 3.425 111.075 3.89 110.64 4.19C110.205 4.49 109.583 4.64 108.773 4.64C108.023 4.64 107.34 4.64 106.725 4.64C106.125 4.64 105.563 4.6475 105.038 4.6625C104.513 4.6625 103.988 4.67 103.463 4.685C102.953 4.685 102.413 4.7 101.843 4.73C100.223 4.805 98.8054 4.9625 97.5904 5.2025C96.3904 5.4275 95.4529 5.8175 94.7779 6.3725C94.1179 6.9125 93.7879 7.7 93.7879 8.735H103.733C106.373 8.735 108.48 9.005 110.055 9.545C111.645 10.07 112.785 10.94 113.475 12.155C114.18 13.37 114.533 14.99 114.533 17.015V21.74C114.533 23.795 114.165 25.43 113.43 26.645C112.695 27.845 111.48 28.7075 109.785 29.2325C108.09 29.7575 105.803 30.02 102.923 30.02H101.573ZM101.573 26.24H102.923C105.173 26.24 106.853 26.135 107.963 25.925C109.088 25.7 109.83 25.2575 110.19 24.5975C110.565 23.9225 110.753 22.925 110.753 21.605V17.15C110.753 15.83 110.58 14.84 110.235 14.18C109.89 13.52 109.215 13.0775 108.21 12.8525C107.205 12.6275 105.713 12.515 103.733 12.515H93.7429V21.605C93.7429 22.925 93.9229 23.9225 94.2829 24.5975C94.6579 25.2575 95.4004 25.7 96.5104 25.925C97.6354 26.135 99.3229 26.24 101.573 26.24Z"/>
<path d="M141.938 30.335C140.678 30.335 140.048 29.555 140.048 27.995V14.09L124.59 30.02H121.058V10.625C121.058 9.155 121.688 8.42 122.948 8.42C124.208 8.42 124.838 9.2 124.838 10.76V24.845L140.43 8.735H143.828V28.13C143.828 29.6 143.198 30.335 141.938 30.335Z"/>
<path d="M159.195 30.335C157.815 30.335 157.125 29.66 157.125 28.31V12.515H150.645C149.175 12.515 148.44 11.885 148.44 10.625C148.44 9.365 149.175 8.735 150.645 8.735H167.79C169.26 8.735 169.995 9.365 169.995 10.625C169.995 11.885 169.26 12.515 167.79 12.515H161.355V28.31C161.355 28.925 161.16 29.4125 160.77 29.7725C160.38 30.1475 159.855 30.335 159.195 30.335Z"/>
</mask>
<path d="M2.50402 30.335C1.63402 30.335 1.02652 29.99 0.681515 29.3C0.351515 28.61 0.471515 27.9125 1.04152 27.2075L11.189 14.135V16.835L1.01902 3.74C0.659015 3.29 0.486515 2.8175 0.501515 2.3225C0.531515 1.8125 0.711515 1.385 1.04152 1.04C1.38652 0.68 1.85902 0.5 2.45902 0.5C2.78902 0.5 3.08902 0.6125 3.35902 0.8375C3.62902 1.0475 3.88402 1.3175 4.12402 1.6475L13.664 14.225H11.594L21.179 1.6475C21.449 1.2875 21.7265 1.0175 22.0115 0.8375C22.3115 0.6425 22.679 0.544999 23.114 0.544999C23.609 0.544999 24.0065 0.71 24.3065 1.04C24.6215 1.37 24.7865 1.7825 24.8015 2.2775C24.8315 2.7575 24.6515 3.2375 24.2615 3.7175L14.114 16.835V14.135L24.2615 27.185C24.6365 27.605 24.809 28.0625 24.779 28.5575C24.764 29.0375 24.584 29.45 24.239 29.795C23.894 30.155 23.414 30.335 22.799 30.335C22.304 30.335 21.764 29.9975 21.179 29.3225L11.594 16.7H13.664L4.12402 29.3225C3.61402 29.9975 3.07402 30.335 2.50402 30.335Z" fill="black"/>
<path d="M41.0451 30.02H34.7001C33.5151 30.02 32.5326 29.825 31.7526 29.435C30.9876 29.03 30.4176 28.415 30.0426 27.59C29.6676 26.765 29.4801 25.73 29.4801 24.485C29.4801 23.675 29.6376 23.0525 29.9526 22.6175C30.2826 22.1825 30.7551 21.965 31.3701 21.965C31.9701 21.965 32.4351 22.175 32.7651 22.595C33.0951 23.015 33.2601 23.6 33.2601 24.35C33.2601 25.1 33.3801 25.6025 33.6201 25.8575C33.8601 26.1125 34.3251 26.24 35.0151 26.24H41.0451C43.2951 26.24 44.9826 26.135 46.1076 25.925C47.2326 25.7 47.9826 25.265 48.3576 24.62C48.7326 23.975 48.9201 23.015 48.9201 21.74V20.93H39.5601C38.0001 20.93 37.2201 20.33 37.2201 19.13C37.2201 17.81 38.0001 17.15 39.5601 17.15H48.9201V16.97C48.9201 15.695 48.7326 14.7425 48.3576 14.1125C47.9826 13.4675 47.2326 13.04 46.1076 12.83C44.9976 12.62 43.3101 12.515 41.0451 12.515H35.0151C34.3251 12.515 33.8601 12.65 33.6201 12.92C33.3801 13.19 33.2601 13.7 33.2601 14.45C33.2601 16.01 32.6301 16.79 31.3701 16.79C30.1101 16.79 29.4801 15.95 29.4801 14.27C29.4801 13.01 29.6676 11.975 30.0426 11.165C30.4176 10.34 30.9876 9.7325 31.7526 9.3425C32.5326 8.9375 33.5151 8.735 34.7001 8.735H41.0451C43.9251 8.735 46.2126 8.9975 47.9076 9.5225C49.6176 10.0325 50.8401 10.895 51.5751 12.11C52.3251 13.31 52.7001 14.945 52.7001 17.015V21.74C52.7001 23.81 52.3251 25.4525 51.5751 26.6675C50.8401 27.8675 49.6176 28.73 47.9076 29.255C46.2126 29.765 43.9251 30.02 41.0451 30.02Z" fill="black"/>
<path d="M70.6583 30.02C67.7933 30.02 65.5058 29.7575 63.7958 29.2325C62.1008 28.6925 60.8858 27.8075 60.1508 26.5775C59.4158 25.3475 59.0483 23.69 59.0483 21.605V9.455C59.0483 7.745 59.3483 6.335 59.9483 5.225C60.5483 4.1 61.4708 3.23 62.7158 2.615C63.9758 1.985 65.5883 1.55 67.5533 1.31C68.8433 1.145 70.4033 1.0325 72.2333 0.972501C74.0783 0.897501 76.0133 0.860001 78.0383 0.860001C79.5983 0.860001 80.3783 1.505 80.3783 2.795C80.3783 3.425 80.1608 3.89 79.7258 4.19C79.2908 4.49 78.6683 4.64 77.8583 4.64C77.1083 4.64 76.4258 4.64 75.8108 4.64C75.2108 4.64 74.6483 4.6475 74.1233 4.6625C73.5983 4.6625 73.0733 4.67 72.5483 4.685C72.0383 4.685 71.4983 4.7 70.9283 4.73C69.3083 4.805 67.8908 4.9625 66.6758 5.2025C65.4758 5.4275 64.5383 5.8175 63.8633 6.3725C63.2033 6.9125 62.8733 7.7 62.8733 8.735H72.8183C75.4583 8.735 77.5658 9.005 79.1408 9.545C80.7308 10.07 81.8708 10.94 82.5608 12.155C83.2658 13.37 83.6183 14.99 83.6183 17.015V21.74C83.6183 23.795 83.2508 25.43 82.5158 26.645C81.7808 27.845 80.5658 28.7075 78.8708 29.2325C77.1758 29.7575 74.8883 30.02 72.0083 30.02H70.6583ZM70.6583 26.24H72.0083C74.2583 26.24 75.9383 26.135 77.0483 25.925C78.1733 25.7 78.9158 25.2575 79.2758 24.5975C79.6508 23.9225 79.8383 22.925 79.8383 21.605V17.15C79.8383 15.83 79.6658 14.84 79.3208 14.18C78.9758 13.52 78.3008 13.0775 77.2958 12.8525C76.2908 12.6275 74.7983 12.515 72.8183 12.515H62.8283V21.605C62.8283 22.925 63.0083 23.9225 63.3683 24.5975C63.7433 25.2575 64.4858 25.7 65.5958 25.925C66.7208 26.135 68.4083 26.24 70.6583 26.24Z" fill="black"/>
<path d="M101.573 30.02C98.7079 30.02 96.4204 29.7575 94.7104 29.2325C93.0154 28.6925 91.8004 27.8075 91.0654 26.5775C90.3304 25.3475 89.9629 23.69 89.9629 21.605V9.455C89.9629 7.745 90.2629 6.335 90.8629 5.225C91.4629 4.1 92.3854 3.23 93.6304 2.615C94.8904 1.985 96.5029 1.55 98.4679 1.31C99.7579 1.145 101.318 1.0325 103.148 0.972501C104.993 0.897501 106.928 0.860001 108.953 0.860001C110.513 0.860001 111.293 1.505 111.293 2.795C111.293 3.425 111.075 3.89 110.64 4.19C110.205 4.49 109.583 4.64 108.773 4.64C108.023 4.64 107.34 4.64 106.725 4.64C106.125 4.64 105.563 4.6475 105.038 4.6625C104.513 4.6625 103.988 4.67 103.463 4.685C102.953 4.685 102.413 4.7 101.843 4.73C100.223 4.805 98.8054 4.9625 97.5904 5.2025C96.3904 5.4275 95.4529 5.8175 94.7779 6.3725C94.1179 6.9125 93.7879 7.7 93.7879 8.735H103.733C106.373 8.735 108.48 9.005 110.055 9.545C111.645 10.07 112.785 10.94 113.475 12.155C114.18 13.37 114.533 14.99 114.533 17.015V21.74C114.533 23.795 114.165 25.43 113.43 26.645C112.695 27.845 111.48 28.7075 109.785 29.2325C108.09 29.7575 105.803 30.02 102.923 30.02H101.573ZM101.573 26.24H102.923C105.173 26.24 106.853 26.135 107.963 25.925C109.088 25.7 109.83 25.2575 110.19 24.5975C110.565 23.9225 110.753 22.925 110.753 21.605V17.15C110.753 15.83 110.58 14.84 110.235 14.18C109.89 13.52 109.215 13.0775 108.21 12.8525C107.205 12.6275 105.713 12.515 103.733 12.515H93.7429V21.605C93.7429 22.925 93.9229 23.9225 94.2829 24.5975C94.6579 25.2575 95.4004 25.7 96.5104 25.925C97.6354 26.135 99.3229 26.24 101.573 26.24Z" fill="black"/>
<path d="M141.938 30.335C140.678 30.335 140.048 29.555 140.048 27.995V14.09L124.59 30.02H121.058V10.625C121.058 9.155 121.688 8.42 122.948 8.42C124.208 8.42 124.838 9.2 124.838 10.76V24.845L140.43 8.735H143.828V28.13C143.828 29.6 143.198 30.335 141.938 30.335Z" fill="black"/>
<path d="M159.195 30.335C157.815 30.335 157.125 29.66 157.125 28.31V12.515H150.645C149.175 12.515 148.44 11.885 148.44 10.625C148.44 9.365 149.175 8.735 150.645 8.735H167.79C169.26 8.735 169.995 9.365 169.995 10.625C169.995 11.885 169.26 12.515 167.79 12.515H161.355V28.31C161.355 28.925 161.16 29.4125 160.77 29.7725C160.38 30.1475 159.855 30.335 159.195 30.335Z" fill="black"/>
<path d="M2.50402 30.335C1.63402 30.335 1.02652 29.99 0.681515 29.3C0.351515 28.61 0.471515 27.9125 1.04152 27.2075L11.189 14.135V16.835L1.01902 3.74C0.659015 3.29 0.486515 2.8175 0.501515 2.3225C0.531515 1.8125 0.711515 1.385 1.04152 1.04C1.38652 0.68 1.85902 0.5 2.45902 0.5C2.78902 0.5 3.08902 0.6125 3.35902 0.8375C3.62902 1.0475 3.88402 1.3175 4.12402 1.6475L13.664 14.225H11.594L21.179 1.6475C21.449 1.2875 21.7265 1.0175 22.0115 0.8375C22.3115 0.6425 22.679 0.544999 23.114 0.544999C23.609 0.544999 24.0065 0.71 24.3065 1.04C24.6215 1.37 24.7865 1.7825 24.8015 2.2775C24.8315 2.7575 24.6515 3.2375 24.2615 3.7175L14.114 16.835V14.135L24.2615 27.185C24.6365 27.605 24.809 28.0625 24.779 28.5575C24.764 29.0375 24.584 29.45 24.239 29.795C23.894 30.155 23.414 30.335 22.799 30.335C22.304 30.335 21.764 29.9975 21.179 29.3225L11.594 16.7H13.664L4.12402 29.3225C3.61402 29.9975 3.07402 30.335 2.50402 30.335Z" stroke="black" mask="url(#path-1-outside-1_177_1237)"/>
<path d="M41.0451 30.02H34.7001C33.5151 30.02 32.5326 29.825 31.7526 29.435C30.9876 29.03 30.4176 28.415 30.0426 27.59C29.6676 26.765 29.4801 25.73 29.4801 24.485C29.4801 23.675 29.6376 23.0525 29.9526 22.6175C30.2826 22.1825 30.7551 21.965 31.3701 21.965C31.9701 21.965 32.4351 22.175 32.7651 22.595C33.0951 23.015 33.2601 23.6 33.2601 24.35C33.2601 25.1 33.3801 25.6025 33.6201 25.8575C33.8601 26.1125 34.3251 26.24 35.0151 26.24H41.0451C43.2951 26.24 44.9826 26.135 46.1076 25.925C47.2326 25.7 47.9826 25.265 48.3576 24.62C48.7326 23.975 48.9201 23.015 48.9201 21.74V20.93H39.5601C38.0001 20.93 37.2201 20.33 37.2201 19.13C37.2201 17.81 38.0001 17.15 39.5601 17.15H48.9201V16.97C48.9201 15.695 48.7326 14.7425 48.3576 14.1125C47.9826 13.4675 47.2326 13.04 46.1076 12.83C44.9976 12.62 43.3101 12.515 41.0451 12.515H35.0151C34.3251 12.515 33.8601 12.65 33.6201 12.92C33.3801 13.19 33.2601 13.7 33.2601 14.45C33.2601 16.01 32.6301 16.79 31.3701 16.79C30.1101 16.79 29.4801 15.95 29.4801 14.27C29.4801 13.01 29.6676 11.975 30.0426 11.165C30.4176 10.34 30.9876 9.7325 31.7526 9.3425C32.5326 8.9375 33.5151 8.735 34.7001 8.735H41.0451C43.9251 8.735 46.2126 8.9975 47.9076 9.5225C49.6176 10.0325 50.8401 10.895 51.5751 12.11C52.3251 13.31 52.7001 14.945 52.7001 17.015V21.74C52.7001 23.81 52.3251 25.4525 51.5751 26.6675C50.8401 27.8675 49.6176 28.73 47.9076 29.255C46.2126 29.765 43.9251 30.02 41.0451 30.02Z" stroke="black" mask="url(#path-1-outside-1_177_1237)"/>
<path d="M70.6583 30.02C67.7933 30.02 65.5058 29.7575 63.7958 29.2325C62.1008 28.6925 60.8858 27.8075 60.1508 26.5775C59.4158 25.3475 59.0483 23.69 59.0483 21.605V9.455C59.0483 7.745 59.3483 6.335 59.9483 5.225C60.5483 4.1 61.4708 3.23 62.7158 2.615C63.9758 1.985 65.5883 1.55 67.5533 1.31C68.8433 1.145 70.4033 1.0325 72.2333 0.972501C74.0783 0.897501 76.0133 0.860001 78.0383 0.860001C79.5983 0.860001 80.3783 1.505 80.3783 2.795C80.3783 3.425 80.1608 3.89 79.7258 4.19C79.2908 4.49 78.6683 4.64 77.8583 4.64C77.1083 4.64 76.4258 4.64 75.8108 4.64C75.2108 4.64 74.6483 4.6475 74.1233 4.6625C73.5983 4.6625 73.0733 4.67 72.5483 4.685C72.0383 4.685 71.4983 4.7 70.9283 4.73C69.3083 4.805 67.8908 4.9625 66.6758 5.2025C65.4758 5.4275 64.5383 5.8175 63.8633 6.3725C63.2033 6.9125 62.8733 7.7 62.8733 8.735H72.8183C75.4583 8.735 77.5658 9.005 79.1408 9.545C80.7308 10.07 81.8708 10.94 82.5608 12.155C83.2658 13.37 83.6183 14.99 83.6183 17.015V21.74C83.6183 23.795 83.2508 25.43 82.5158 26.645C81.7808 27.845 80.5658 28.7075 78.8708 29.2325C77.1758 29.7575 74.8883 30.02 72.0083 30.02H70.6583ZM70.6583 26.24H72.0083C74.2583 26.24 75.9383 26.135 77.0483 25.925C78.1733 25.7 78.9158 25.2575 79.2758 24.5975C79.6508 23.9225 79.8383 22.925 79.8383 21.605V17.15C79.8383 15.83 79.6658 14.84 79.3208 14.18C78.9758 13.52 78.3008 13.0775 77.2958 12.8525C76.2908 12.6275 74.7983 12.515 72.8183 12.515H62.8283V21.605C62.8283 22.925 63.0083 23.9225 63.3683 24.5975C63.7433 25.2575 64.4858 25.7 65.5958 25.925C66.7208 26.135 68.4083 26.24 70.6583 26.24Z" stroke="black" mask="url(#path-1-outside-1_177_1237)"/>
<path d="M101.573 30.02C98.7079 30.02 96.4204 29.7575 94.7104 29.2325C93.0154 28.6925 91.8004 27.8075 91.0654 26.5775C90.3304 25.3475 89.9629 23.69 89.9629 21.605V9.455C89.9629 7.745 90.2629 6.335 90.8629 5.225C91.4629 4.1 92.3854 3.23 93.6304 2.615C94.8904 1.985 96.5029 1.55 98.4679 1.31C99.7579 1.145 101.318 1.0325 103.148 0.972501C104.993 0.897501 106.928 0.860001 108.953 0.860001C110.513 0.860001 111.293 1.505 111.293 2.795C111.293 3.425 111.075 3.89 110.64 4.19C110.205 4.49 109.583 4.64 108.773 4.64C108.023 4.64 107.34 4.64 106.725 4.64C106.125 4.64 105.563 4.6475 105.038 4.6625C104.513 4.6625 103.988 4.67 103.463 4.685C102.953 4.685 102.413 4.7 101.843 4.73C100.223 4.805 98.8054 4.9625 97.5904 5.2025C96.3904 5.4275 95.4529 5.8175 94.7779 6.3725C94.1179 6.9125 93.7879 7.7 93.7879 8.735H103.733C106.373 8.735 108.48 9.005 110.055 9.545C111.645 10.07 112.785 10.94 113.475 12.155C114.18 13.37 114.533 14.99 114.533 17.015V21.74C114.533 23.795 114.165 25.43 113.43 26.645C112.695 27.845 111.48 28.7075 109.785 29.2325C108.09 29.7575 105.803 30.02 102.923 30.02H101.573ZM101.573 26.24H102.923C105.173 26.24 106.853 26.135 107.963 25.925C109.088 25.7 109.83 25.2575 110.19 24.5975C110.565 23.9225 110.753 22.925 110.753 21.605V17.15C110.753 15.83 110.58 14.84 110.235 14.18C109.89 13.52 109.215 13.0775 108.21 12.8525C107.205 12.6275 105.713 12.515 103.733 12.515H93.7429V21.605C93.7429 22.925 93.9229 23.9225 94.2829 24.5975C94.6579 25.2575 95.4004 25.7 96.5104 25.925C97.6354 26.135 99.3229 26.24 101.573 26.24Z" stroke="black" mask="url(#path-1-outside-1_177_1237)"/>
<path d="M141.938 30.335C140.678 30.335 140.048 29.555 140.048 27.995V14.09L124.59 30.02H121.058V10.625C121.058 9.155 121.688 8.42 122.948 8.42C124.208 8.42 124.838 9.2 124.838 10.76V24.845L140.43 8.735H143.828V28.13C143.828 29.6 143.198 30.335 141.938 30.335Z" stroke="black" mask="url(#path-1-outside-1_177_1237)"/>
<path d="M159.195 30.335C157.815 30.335 157.125 29.66 157.125 28.31V12.515H150.645C149.175 12.515 148.44 11.885 148.44 10.625C148.44 9.365 149.175 8.735 150.645 8.735H167.79C169.26 8.735 169.995 9.365 169.995 10.625C169.995 11.885 169.26 12.515 167.79 12.515H161.355V28.31C161.355 28.925 161.16 29.4125 160.77 29.7725C160.38 30.1475 159.855 30.335 159.195 30.335Z" stroke="black" mask="url(#path-1-outside-1_177_1237)"/>
</svg>
