<svg width="24" height="24" viewBox="0 0 24 24" fill="none" xmlns="http://www.w3.org/2000/svg">
<path d="M7.87576 19.2542C7.82056 17.8971 6.923 16.6215 5.71225 15.4384C4.43228 14.1884 3.5539 12.5853 3.18927 10.8338C2.82464 9.08234 2.99032 7.2619 3.66514 5.605C4.33996 3.9481 5.4933 2.52993 6.97789 1.53157C8.46248 0.533221 10.2109 0 12 0C13.789 0 15.5375 0.533221 17.0221 1.53157C18.5067 2.52993 19.66 3.9481 20.3348 5.605C21.0097 7.2619 21.1753 9.08234 20.8107 10.8338C20.4461 12.5853 19.5677 14.1884 18.2877 15.4384C17.0386 16.6587 16.1218 17.9787 16.1218 19.3862V21.3001C16.1218 22.0162 15.8374 22.7029 15.331 23.2092C14.8247 23.7155 14.138 24 13.4219 24H10.5744C9.85839 24 9.17167 23.7155 8.66534 23.2092C8.15901 22.7029 7.87456 22.0162 7.87456 21.3001L7.87576 19.2542ZM4.80029 9.00064C4.79889 9.96076 4.99018 10.9114 5.36284 11.7963C5.73549 12.6811 6.28194 13.4822 6.9698 14.152C7.85896 15.0208 8.78412 16.1115 9.2893 17.4003H11.1V11.8097C10.7203 11.676 10.3754 11.4586 10.0909 11.1737L9.07571 10.1586C8.9898 10.0755 8.92128 9.97619 8.87417 9.86637C8.82705 9.75655 8.80228 9.63845 8.8013 9.51895C8.80032 9.39946 8.82315 9.28096 8.86845 9.17038C8.91375 9.0598 8.98063 8.95935 9.06517 8.87489C9.1497 8.79043 9.25022 8.72365 9.36084 8.67846C9.47146 8.63326 9.58998 8.61054 9.70948 8.61164C9.82897 8.61273 9.94705 8.63761 10.0568 8.68483C10.1666 8.73205 10.2659 8.80065 10.3489 8.88665L11.364 9.9006C11.5328 10.0691 11.7615 10.1638 12 10.1638C12.2385 10.1638 12.4672 10.0691 12.636 9.9006L13.6511 8.88545C13.7335 8.79703 13.8329 8.72611 13.9433 8.67692C14.0537 8.62773 14.1728 8.60128 14.2937 8.59915C14.4145 8.59702 14.5345 8.61925 14.6466 8.66451C14.7587 8.70977 14.8604 8.77714 14.9459 8.8626C15.0314 8.94806 15.0987 9.04986 15.144 9.16192C15.1893 9.27398 15.2115 9.39401 15.2094 9.51485C15.2072 9.63568 15.1808 9.75486 15.1316 9.86525C15.0824 9.97565 15.0115 10.075 14.9231 10.1574L13.9091 11.1726C13.6247 11.4579 13.2798 11.6756 12.8999 11.8097V17.4003H14.7107C15.2158 16.1115 16.141 15.0196 17.0302 14.152C17.8798 13.3223 18.511 12.2953 18.8676 11.1624C19.2241 10.0296 19.2949 8.82621 19.0736 7.65942C18.8523 6.49263 18.3458 5.39869 17.5992 4.47509C16.8527 3.5515 15.8892 2.82691 14.7948 2.36591C13.7003 1.90491 12.5088 1.7218 11.3264 1.83291C10.144 1.94401 9.00749 2.34588 8.01806 3.0027C7.02864 3.65952 6.21705 4.5509 5.65562 5.5974C5.09419 6.64391 4.80036 7.81305 4.80029 9.00064ZM9.67568 19.4558V21.3001C9.67568 21.7969 10.0777 22.2001 10.5756 22.2001H13.4219C13.6606 22.2001 13.8895 22.1053 14.0583 21.9365C14.2271 21.7677 14.3219 21.5388 14.3219 21.3001V19.2002H9.67449V19.2206C9.67641 19.299 9.67761 19.3774 9.67568 19.4558Z" fill="currentColor"/>
</svg>
