<svg width="24" height="24" viewBox="0 0 24 24" fill="none" xmlns="http://www.w3.org/2000/svg">
<g clip-path="url(#clip0_14_46)">
<path d="M12 0.997925C18.0764 0.997925 23.0021 5.92357 23.0021 12C23.0021 18.0765 18.0764 23.0021 12 23.0021C5.92351 23.0021 0.997864 18.0765 0.997864 12C0.997864 5.92357 5.92351 0.997925 12 0.997925ZM12 3.19835C9.66562 3.19835 7.42688 4.12566 5.77624 5.7763C4.1256 7.42694 3.19829 9.66568 3.19829 12C3.19829 14.3344 4.1256 16.5731 5.77624 18.2238C7.42688 19.8744 9.66562 20.8017 12 20.8017C14.3343 20.8017 16.5731 19.8744 18.2237 18.2238C19.8743 16.5731 20.8017 14.3344 20.8017 12C20.8017 9.66568 19.8743 7.42694 18.2237 5.7763C16.5731 4.12566 14.3343 3.19835 12 3.19835ZM15.8892 8.01837C16.0868 7.81895 16.353 7.70257 16.6336 7.69306C16.9141 7.68354 17.1877 7.7816 17.3982 7.96717C17.6088 8.15274 17.7405 8.41179 17.7664 8.69129C17.7923 8.97078 17.7103 9.24959 17.5373 9.47065L17.446 9.57407L11.3002 15.7209C11.0905 15.9307 10.811 16.0561 10.5149 16.0733C10.2188 16.0905 9.92661 15.9984 9.69393 15.8145L9.58831 15.7209L6.55393 12.6866C6.35451 12.489 6.23813 12.2227 6.22861 11.9422C6.2191 11.6617 6.31716 11.3881 6.50273 11.1775C6.6883 10.9669 6.94735 10.8352 7.22684 10.8094C7.50634 10.7835 7.78515 10.8655 8.00621 11.0385L8.10963 11.1309L10.4443 13.4644L15.8903 8.01837H15.8892Z" fill="currentColor"/>
</g>
<defs>
<clipPath id="clip0_14_46">
<rect width="24" height="24" fill="white"/>
</clipPath>
</defs>
</svg>
