<svg width="24" height="24" viewBox="0 0 24 24" fill="none" xmlns="http://www.w3.org/2000/svg">
<g clip-path="url(#clip0_34_63)">
<path d="M11.2851 0.776296C11.6938 0.407901 12.3136 0.407901 12.7223 0.776296L23.1415 10.121C23.5861 10.5163 23.622 11.1992 23.2223 11.644C22.8226 12.0887 22.1444 12.1247 21.6998 11.7248L21.3406 11.4014V20.6247C21.3406 22.2106 20.0516 23.5 18.4663 23.5H5.53215C3.94682 23.5 2.65789 22.2106 2.65789 20.6247V11.4014L2.29861 11.7248C1.854 12.1202 1.17585 12.0842 0.776153 11.644C0.376452 11.2037 0.416871 10.5208 0.856992 10.121L11.2851 0.776296ZM12.0037 3.0271L4.81807 9.47402V20.6292C4.81807 21.0246 5.14143 21.348 5.53664 21.348H7.69233V16.6757C7.69233 14.8876 9.13844 13.441 10.9259 13.441H13.0816C14.869 13.441 16.3151 14.8876 16.3151 16.6757V21.348H18.4708C18.866 21.348 19.1894 21.0246 19.1894 20.6292V9.47402L12.0037 3.03159V3.0271ZM9.84802 21.348H14.1594V16.6757C14.1594 16.0782 13.6789 15.5975 13.0816 15.5975H10.9259C10.3286 15.5975 9.84802 16.0782 9.84802 16.6757V21.348Z" fill="currentColor"/>
</g>
<defs>
<clipPath id="clip0_34_63">
<rect width="24" height="24" fill="white"/>
</clipPath>
</defs>
</svg>
