<svg width="24" height="24" viewBox="0 0 24 24" fill="none" xmlns="http://www.w3.org/2000/svg">
<path d="M12 2.88571C11.6286 2.88571 11.2607 2.95888 10.9176 3.10103C10.5744 3.24318 10.2626 3.45153 9.99991 3.71418C9.73725 3.97684 9.5289 4.28866 9.38675 4.63184C9.2446 4.97502 9.17144 5.34283 9.17144 5.71429C9.17144 6.08574 9.2446 6.45356 9.38675 6.79673C9.5289 7.13991 9.73725 7.45173 9.99991 7.71439C10.2626 7.97705 10.5744 8.1854 10.9176 8.32754C11.2607 8.46969 11.6286 8.54286 12 8.54286C12.7502 8.54286 13.4697 8.24485 14.0001 7.71439C14.5306 7.18393 14.8286 6.46447 14.8286 5.71429C14.8286 4.9641 14.5306 4.24464 14.0001 3.71418C13.4697 3.18372 12.7502 2.88571 12 2.88571ZM7.28572 5.71429C7.28572 4.46398 7.78241 3.26488 8.66651 2.38078C9.55061 1.49668 10.7497 1 12 1C13.2503 1 14.4494 1.49668 15.3335 2.38078C16.2176 3.26488 16.7143 4.46398 16.7143 5.71429C16.7143 6.96459 16.2176 8.16369 15.3335 9.04779C14.4494 9.93189 13.2503 10.4286 12 10.4286C10.7497 10.4286 9.55061 9.93189 8.66651 9.04779C7.78241 8.16369 7.28572 6.96459 7.28572 5.71429ZM8.62332 13.0296C8.78927 13.1528 9.00298 13.2974 9.25818 13.4407C9.9031 13.8053 10.8485 14.1824 11.9988 14.1824C13.149 14.1824 14.0957 13.8053 14.7406 13.4407C14.9958 13.2974 15.2095 13.1528 15.3754 13.0296C15.6118 13.0925 15.846 13.162 16.0782 13.2383L17.285 13.6343C18.1902 13.9322 18.8741 14.6551 19.118 15.5489L19.617 19.1494C19.7113 19.8333 19.353 20.3298 18.8552 20.448C17.539 20.7623 15.3201 21.1143 12 21.1143C8.67989 21.1143 6.45978 20.7623 5.14355 20.448C4.64698 20.3298 4.28869 19.8333 4.38172 19.1494L4.88081 15.5489C5.00482 15.1032 5.2372 14.6951 5.55724 14.3611C5.87727 14.027 6.27501 13.7773 6.71498 13.6343L7.92184 13.2383C8.15315 13.1629 8.38698 13.0933 8.62332 13.0296ZM9.51589 11.3262L9.15007 10.9654L8.6447 11.081C8.20386 11.1816 7.76637 11.3035 7.33224 11.4469L6.12538 11.8429C5.37564 12.0866 4.69968 12.5159 4.16032 13.0908C3.62096 13.6658 3.2357 14.3678 3.04035 15.1315L3.02778 15.1818L2.51487 18.8904C2.31247 20.3537 3.09567 21.8987 4.70732 22.2822C6.17818 22.6329 8.54412 23 11.9988 23C15.4546 23 17.8206 22.6329 19.2914 22.2834C20.9031 21.8987 21.6876 20.3537 21.4852 18.8917L20.971 15.1831L20.9584 15.1328C20.7631 14.3687 20.3778 13.6663 19.8382 13.0911C19.2986 12.5159 18.6222 12.0865 17.8721 11.8429L16.6665 11.4469C16.2332 11.3044 15.7957 11.1829 15.3541 11.0823L14.8487 10.9654L14.4841 11.3249L14.4829 11.3262C14.4343 11.3705 14.3839 11.4128 14.332 11.4531C14.1699 11.5819 13.9976 11.6971 13.8166 11.7976C13.2639 12.117 12.6383 12.2889 12 12.2967C11.3617 12.2889 10.7361 12.117 10.1834 11.7976C9.94593 11.6635 9.72143 11.5055 9.51589 11.3262Z" fill="currentColor"/>
</svg>
