<svg width="143" height="150" viewBox="0 0 143 150" fill="none" xmlns="http://www.w3.org/2000/svg">
<g filter="url(#filter0_d_392_4)">
<path d="M41.0264 98.4766C42.207 100.156 43.629 101.648 45.2441 102.906C43.6365 104.158 42.2112 105.646 41.0264 107.335C39.8457 105.655 38.4239 104.163 36.8086 102.905C38.4163 101.653 39.8414 100.165 41.0264 98.4766ZM82.208 42.9111C82.7355 44.3349 83.3528 45.6677 84.1562 46.9004C85.7226 49.3085 87.7726 51.3647 90.1768 52.9375L90.1875 52.9453L90.1992 52.9521C91.4479 53.7623 92.7897 54.384 94.2246 54.916C92.989 55.3732 91.8212 55.8982 90.7275 56.5527L90.1689 56.9033C87.7656 58.4771 85.7167 60.5346 84.1514 62.9434L84.1436 62.9551C83.3478 64.1853 82.7339 65.5091 82.209 66.9238C81.6816 65.5004 81.0641 64.1671 80.2607 62.9346C78.6945 60.5269 76.645 58.471 74.2412 56.8984L74.2295 56.8906L73.6709 56.542C72.5814 55.8937 71.4216 55.3728 70.1943 54.918C71.6424 54.3821 72.9974 53.7539 74.249 52.9326L74.248 52.9316C76.5012 51.4562 78.4441 49.5574 79.9678 47.3408L80.2744 46.8809C81.0703 45.6505 81.683 44.326 82.208 42.9111Z" stroke="url(#paint0_linear_392_4)" stroke-width="13.9024" stroke-linecap="round" shape-rendering="crispEdges"/>
</g>
<defs>
<filter id="filter0_d_392_4" x="0" y="0" width="143" height="150" filterUnits="userSpaceOnUse" color-interpolation-filters="sRGB">
<feFlood flood-opacity="0" result="BackgroundImageFix"/>
<feColorMatrix in="SourceAlpha" type="matrix" values="0 0 0 0 0 0 0 0 0 0 0 0 0 0 0 0 0 0 127 0" result="hardAlpha"/>
<feOffset dx="3" dy="3"/>
<feGaussianBlur stdDeviation="10"/>
<feComposite in2="hardAlpha" operator="out"/>
<feColorMatrix type="matrix" values="0 0 0 0 0 0 0 0 0 0 0 0 0 0 0 0 0 0 0.25 0"/>
<feBlend mode="normal" in2="BackgroundImageFix" result="effect1_dropShadow_392_4"/>
<feBlend mode="normal" in="SourceGraphic" in2="effect1_dropShadow_392_4" result="shape"/>
</filter>
<linearGradient id="paint0_linear_392_4" x1="120" y1="97.8747" x2="25.4447" y2="70.6551" gradientUnits="userSpaceOnUse">
<stop stop-color="#B5C2FF"/>
<stop offset="1" stop-color="#FFB4A0"/>
</linearGradient>
</defs>
</svg>
