<svg width="421" height="421" viewBox="0 0 421 421" fill="none" xmlns="http://www.w3.org/2000/svg">
<g filter="url(#filter0_d_461_2)">
<path d="M182.678 297.131L204.582 377.582L226.485 297.131C231.985 276.924 234.75 266.805 240.156 258.477C244.924 251.164 251.164 244.924 258.477 240.156C266.742 234.75 276.861 232.016 297.131 226.485L377.582 204.582L297.131 182.678C276.924 177.178 266.836 174.413 258.477 169.007C251.164 164.239 244.924 157.999 240.156 150.686C234.75 142.421 232.016 132.302 226.485 112.032L204.582 31.5815L182.678 112.032C177.178 132.239 174.413 142.358 169.007 150.686C164.239 157.999 157.999 164.239 150.686 169.007C142.421 174.413 132.302 177.147 112.032 182.678L31.5815 204.582L112.032 226.485C132.239 231.985 142.358 234.75 150.686 240.156C157.999 244.924 164.239 251.164 169.007 258.477C174.413 266.742 177.147 276.861 182.678 297.131Z" fill="url(#paint0_linear_461_2)"/>
<path d="M214.026 115.424L214.028 115.431C219.323 134.836 222.56 147.374 229.348 157.753C235.095 166.563 242.613 174.08 251.424 179.825L251.445 179.838L251.465 179.851C261.902 186.6 274.323 189.853 293.74 195.137L328.425 204.582L293.739 214.026L293.732 214.028C274.326 219.323 261.788 222.56 251.409 229.348C242.599 235.095 235.083 242.614 229.338 251.424L229.332 251.435L229.324 251.447C222.562 261.865 219.304 274.342 214.025 293.74L204.582 328.425L195.137 293.739L195.135 293.732L193.236 286.767C188.976 271.225 185.753 260.491 179.814 251.409C174.067 242.6 166.549 235.083 157.739 229.338L157.728 229.332L157.716 229.324C147.298 222.562 134.82 219.304 115.422 214.025L80.7368 204.582L115.424 195.137L115.431 195.135C134.837 189.84 147.374 186.602 157.753 179.814C166.563 174.067 174.08 166.55 179.825 157.739L179.832 157.728L179.839 157.716C186.601 147.298 189.858 134.82 195.137 115.422L204.582 80.7368L214.026 115.424Z" stroke="url(#paint1_linear_461_2)" stroke-width="25.8271" stroke-linecap="round"/>
</g>
<defs>
<filter id="filter0_d_461_2" x="-1.90735e-06" y="-1.90735e-06" width="420.31" height="420.31" filterUnits="userSpaceOnUse" color-interpolation-filters="sRGB">
<feFlood flood-opacity="0" result="BackgroundImageFix"/>
<feColorMatrix in="SourceAlpha" type="matrix" values="0 0 0 0 0 0 0 0 0 0 0 0 0 0 0 0 0 0 127 0" result="hardAlpha"/>
<feOffset dx="5.57321" dy="5.57321"/>
<feGaussianBlur stdDeviation="18.5774"/>
<feComposite in2="hardAlpha" operator="out"/>
<feColorMatrix type="matrix" values="0 0 0 0 0 0 0 0 0 0 0 0 0 0 0 0 0 0 0.25 0"/>
<feBlend mode="normal" in2="BackgroundImageFix" result="effect1_dropShadow_461_2"/>
<feBlend mode="normal" in="SourceGraphic" in2="effect1_dropShadow_461_2" result="shape"/>
</filter>
<linearGradient id="paint0_linear_461_2" x1="3.50122" y1="406.654" x2="422.501" y2="377.654" gradientUnits="userSpaceOnUse">
<stop stop-color="#FFB4A0"/>
<stop offset="1" stop-color="#B5C2FF"/>
</linearGradient>
<linearGradient id="paint1_linear_461_2" x1="377.582" y1="400.571" x2="-55.0526" y2="275.61" gradientUnits="userSpaceOnUse">
<stop stop-color="#B5C2FF"/>
<stop offset="1" stop-color="#FFB4A0"/>
</linearGradient>
</defs>
</svg>
