<svg width="18" height="20" viewBox="0 0 18 20" fill="none" xmlns="http://www.w3.org/2000/svg">
<path d="M14.56 4.15841C14.25 3.95841 13.86 3.93841 13.53 4.10841C13.21 4.27841 13 4.61841 13 4.98841C13 6.61841 12.5 9.98841 11 9.98841C10.77 9.98841 10.37 9.85841 10.22 9.57841C10.01 9.18841 10.24 8.42841 10.83 7.54841C12.83 4.54841 10.24 1.42841 8.6 0.198408C8.48285 0.110421 8.34764 0.0495323 8.2041 0.0201344C8.06057 -0.00926348 7.91231 -0.00643786 7.77 0.0284075C7.62737 0.0618063 7.49405 0.126755 7.37983 0.218475C7.26561 0.310195 7.17341 0.426354 7.11 0.558407C6.53 1.72841 5.25 2.77841 4.02 3.78841C3.39 4.30841 2.8 4.78841 2.29 5.29841C0.0200002 7.56841 0 10.8684 0 11.0084C0 15.9684 4.04 20.0084 9 20.0084C13.96 20.0084 18 15.9684 18 11.0084C18 10.8184 17.96 6.44841 14.55 4.17841L14.56 4.15841ZM9.01 17.9884C5.15 17.9884 2.01 14.8484 2.01 10.9884C2.01 10.9584 2.05 8.35841 3.72 6.68841C4.16 6.24841 4.71 5.78841 5.3 5.30841C6.3 4.48841 7.4 3.57841 8.22 2.51841C9.07 3.40841 10.16 4.96841 9.18 6.42841C7.85 8.41841 8.06 9.74841 8.47 10.5084C9.01 11.5284 10.14 11.9784 11.01 11.9784C12.22 11.9784 13.83 11.3284 14.6 8.21841C14.69 7.86841 14.76 7.50841 14.81 7.16841C15.96 8.86841 16 10.9184 16 10.9684C16 14.8284 12.86 17.9684 9 17.9684L9.01 17.9884Z" fill="#FF6A6A"/>
</svg>
