<svg width="13" height="22" viewBox="0 0 13 22" fill="none" xmlns="http://www.w3.org/2000/svg">
<path d="M4.24667 0H8.21167C8.79125 0 9.27333 -3.0268e-08 9.66875 0.0325C10.0804 0.065 10.4661 0.138667 10.8312 0.325C11.3918 0.610643 11.8477 1.06648 12.1333 1.62717C12.3197 1.99225 12.3933 2.37792 12.4258 2.78958C12.4583 3.185 12.4583 3.66708 12.4583 4.24667V16.8783C12.4583 17.4579 12.4583 17.94 12.4258 18.3354C12.3933 18.7471 12.3197 19.1327 12.1333 19.4978C11.848 20.0584 11.3925 20.5142 10.8323 20.8C10.4661 20.9863 10.0804 21.06 9.66875 21.0925C9.27333 21.125 8.79125 21.125 8.21275 21.125H4.24667C3.66708 21.125 3.185 21.125 2.78958 21.0925C2.37792 21.06 1.99225 20.9863 1.62717 20.8C1.06681 20.5149 0.611011 20.0599 0.325 19.5C0.138667 19.1338 0.0650002 18.7482 0.0325002 18.3365C2.28019e-07 17.9411 0 17.459 0 16.8794V4.24667C0 3.66708 2.28019e-07 3.185 0.0325002 2.78958C0.0650002 2.37792 0.138667 1.99225 0.325 1.62717C0.610643 1.06648 1.06648 0.610643 1.62717 0.325C1.99225 0.138667 2.37792 0.065 2.78958 0.0325C3.185 -3.0268e-08 3.66708 0 4.24667 0ZM2.92175 1.65208C2.61083 1.677 2.46242 1.7225 2.36492 1.77233C2.1097 1.90223 1.90223 2.1097 1.77233 2.36492C1.7225 2.46242 1.677 2.61083 1.65208 2.92175C1.62608 3.24242 1.625 3.65842 1.625 4.27917V16.8458C1.625 17.4655 1.625 17.8826 1.65208 18.2022C1.677 18.5142 1.7225 18.6626 1.77233 18.7601C1.90233 19.0158 2.10925 19.2227 2.36492 19.3527C2.46242 19.4025 2.61083 19.448 2.92175 19.4729C3.24242 19.4989 3.65842 19.5 4.27917 19.5H8.17917C8.79883 19.5 9.21592 19.5 9.5355 19.4729C9.8475 19.448 9.99592 19.4025 10.0945 19.3527C10.3493 19.2226 10.5564 19.0151 10.686 18.7601C10.7358 18.6626 10.7813 18.5142 10.8063 18.2022C10.8323 17.8826 10.8333 17.4655 10.8333 16.8458V4.27917C10.8333 3.6595 10.8333 3.24242 10.8063 2.92175C10.7813 2.61083 10.7358 2.46242 10.686 2.36492C10.5564 2.10986 10.3493 1.90242 10.0945 1.77233C9.99592 1.7225 9.8475 1.677 9.53658 1.65208C9.30692 1.63563 9.07675 1.62732 8.8465 1.62717L8.71217 2.03125C8.59842 2.37142 8.541 2.54258 8.43592 2.66825C8.34307 2.77931 8.22389 2.86534 8.08925 2.9185C7.93542 2.97917 7.75558 2.97917 7.39592 2.97917H5.06242C4.70275 2.97917 4.52292 2.97917 4.36908 2.9185C4.23456 2.86565 4.11539 2.78 4.02242 2.66933C3.91733 2.54258 3.85992 2.37142 3.74617 2.03017L3.61183 1.62717C3.38158 1.62732 3.15141 1.63563 2.92175 1.65208Z" fill="#6970FE"/>
</svg>
