<svg width="16" height="22" viewBox="0 0 16 22" fill="none" xmlns="http://www.w3.org/2000/svg">
<path fill-rule="evenodd" clip-rule="evenodd" d="M8 2C7.46957 2 6.96086 2.21071 6.58579 2.58579C6.21071 2.96086 6 3.46957 6 4H10C10 3.46957 9.78929 2.96086 9.41421 2.58579C9.03914 2.21071 8.53043 2 8 2ZM5.354 1C6.059 0.378 6.986 0 8 0C9.014 0 9.94 0.378 10.646 1H14C14.5304 1 15.0391 1.21071 15.4142 1.58579C15.7893 1.96086 16 2.46957 16 3V18C16 18.5304 15.7893 19.0391 15.4142 19.4142C15.0391 19.7893 14.5304 20 14 20H2C1.46957 20 0.960859 19.7893 0.585786 19.4142C0.210714 19.0391 0 18.5304 0 18V3C0 2.46957 0.210714 1.96086 0.585786 1.58579C0.960859 1.21071 1.46957 1 2 1H5.354ZM4.126 3H2V18H14V3H11.874C11.9567 3.32067 11.9987 3.654 12 4V5C12 5.26522 11.8946 5.51957 11.7071 5.70711C11.5196 5.89464 11.2652 6 11 6H5C4.73478 6 4.48043 5.89464 4.29289 5.70711C4.10536 5.51957 4 5.26522 4 5V4C4.00133 3.654 4.04333 3.32067 4.126 3ZM4 9C4 8.73478 4.10536 8.48043 4.29289 8.29289C4.48043 8.10536 4.73478 8 5 8H11C11.2652 8 11.5196 8.10536 11.7071 8.29289C11.8946 8.48043 12 8.73478 12 9C12 9.26522 11.8946 9.51957 11.7071 9.70711C11.5196 9.89464 11.2652 10 11 10H5C4.73478 10 4.48043 9.89464 4.29289 9.70711C4.10536 9.51957 4 9.26522 4 9ZM4 13C4 12.7348 4.10536 12.4804 4.29289 12.2929C4.48043 12.1054 4.73478 12 5 12H8C8.26522 12 8.51957 12.1054 8.70711 12.2929C8.89464 12.4804 9 12.7348 9 13C9 13.2652 8.89464 13.5196 8.70711 13.7071C8.51957 13.8946 8.26522 14 8 14H5C4.73478 14 4.48043 13.8946 4.29289 13.7071C4.10536 13.5196 4 13.2652 4 13Z" fill="#36C801"/>
<path fill-rule="evenodd" clip-rule="evenodd" d="M8.09997 21.1139L8.08797 21.1159L8.01697 21.1509L7.99697 21.1549L7.98297 21.1509L7.91197 21.1149C7.9013 21.1122 7.8933 21.1142 7.88797 21.1209L7.88397 21.1309L7.86697 21.5589L7.87197 21.5789L7.88197 21.5919L7.98597 21.6659L8.00097 21.6699L8.01297 21.6659L8.11697 21.5919L8.12897 21.5759L8.13297 21.5589L8.11597 21.1319C8.1133 21.1212 8.10797 21.1152 8.09997 21.1139ZM8.36397 21.0009L8.34997 21.0029L8.16597 21.0959L8.15597 21.1059L8.15297 21.1169L8.17097 21.5469L8.17597 21.5589L8.18397 21.5669L8.38497 21.6589C8.39764 21.6622 8.4073 21.6596 8.41397 21.6509L8.41797 21.6369L8.38397 21.0229C8.38064 21.0102 8.37397 21.0029 8.36397 21.0009ZM7.64897 21.0029C7.64456 21.0002 7.6393 20.9994 7.63427 21.0005C7.62924 21.0016 7.62483 21.0046 7.62197 21.0089L7.61597 21.0229L7.58197 21.6369C7.58264 21.6489 7.5883 21.6569 7.59897 21.6609L7.61397 21.6589L7.81497 21.5659L7.82497 21.5579L7.82797 21.5469L7.84597 21.1169L7.84297 21.1049L7.83297 21.0949L7.64897 21.0029Z" fill="#36C801"/>
</svg>
