<svg width="20" height="20" viewBox="0 0 20 20" fill="none" xmlns="http://www.w3.org/2000/svg">
<path fill-rule="evenodd" clip-rule="evenodd" d="M7.38102 0.349416C9.3476 -0.184555 11.4304 -0.104972 13.3505 0.577508C15.2706 1.25999 16.9364 2.51279 18.1248 4.16817V2.18692C18.1248 1.93828 18.2235 1.69982 18.3994 1.524C18.5752 1.34819 18.8136 1.24942 19.0623 1.24942C19.3109 1.24942 19.5494 1.34819 19.7252 1.524C19.901 1.69982 19.9998 1.93828 19.9998 2.18692V7.49942H14.6873C14.4386 7.49942 14.2002 7.40064 14.0244 7.22483C13.8485 7.04901 13.7498 6.81056 13.7498 6.56192C13.7498 6.31328 13.8485 6.07482 14.0244 5.899C14.2002 5.72319 14.4386 5.62442 14.6873 5.62442H16.846C15.8669 4.09253 14.4022 2.93331 12.6863 2.33221C10.9705 1.7311 9.10263 1.72286 7.38154 2.30878C5.66046 2.89471 4.18562 4.04095 3.19296 5.56414C2.20031 7.08732 1.74721 8.89943 1.90614 10.7106C2.06508 12.5217 2.82686 14.2272 4.06963 15.5542C5.3124 16.8812 6.96434 17.7531 8.76117 18.0303C10.558 18.3075 12.3959 17.974 13.9808 17.0833C15.5657 16.1925 16.8061 14.7959 17.5035 13.1169C17.5488 13.0005 17.6169 12.8943 17.7037 12.8046C17.7906 12.7149 17.8946 12.6434 18.0094 12.5944C18.1243 12.5454 18.2478 12.5198 18.3727 12.5192C18.4976 12.5186 18.6214 12.543 18.7367 12.5909C18.8521 12.6388 18.9567 12.7092 19.0445 12.7981C19.1322 12.887 19.2013 12.9925 19.2477 13.1085C19.2941 13.2244 19.3168 13.3485 19.3146 13.4734C19.3124 13.5982 19.2853 13.7214 19.2348 13.8357C18.5833 15.4038 17.5432 16.7803 16.2125 17.8352C14.8819 18.8902 13.3045 19.5889 11.629 19.8655C9.95361 20.1422 8.23533 19.9876 6.63618 19.4164C5.03702 18.8452 3.60966 17.8761 2.48865 16.6006C1.36765 15.3251 0.589914 13.7851 0.228769 12.1259C-0.132376 10.4666 -0.0650372 8.74269 0.424438 7.11665C0.913914 5.49062 1.8094 4.016 3.02649 2.83182C4.24358 1.64764 5.74218 0.794149 7.38102 0.349416Z" fill="black"/>
</svg>
