<svg width="18" height="18" viewBox="0 0 18 18" fill="none" xmlns="http://www.w3.org/2000/svg">
<path d="M10.75 13.75H1.75M15.75 3.75H6.75" stroke="black" stroke-width="1.5" stroke-linecap="round" stroke-linejoin="round"/>
<path d="M13.75 16.75C15.4069 16.75 16.75 15.4069 16.75 13.75C16.75 12.0931 15.4069 10.75 13.75 10.75C12.0931 10.75 10.75 12.0931 10.75 13.75C10.75 15.4069 12.0931 16.75 13.75 16.75Z" stroke="black" stroke-width="1.5" stroke-linecap="round" stroke-linejoin="round"/>
<path d="M3.75 6.75C5.40685 6.75 6.75 5.40685 6.75 3.75C6.75 2.09315 5.40685 0.75 3.75 0.75C2.09315 0.75 0.75 2.09315 0.75 3.75C0.75 5.40685 2.09315 6.75 3.75 6.75Z" stroke="black" stroke-width="1.5" stroke-linecap="round" stroke-linejoin="round"/>
</svg>
